<?xml version="1.0" encoding="UTF-8"?>
<svg viewBox="0 0 1137 2588" xmlns="http://www.w3.org/2000/svg">
 <g transform="rotate(-20.588 523.45 1310.9)" opacity=".82">
  <path d="m218.86 2325c0 76.822 88.756 164.97 157.58 177.8 0 0 73.597 18.11 134.16 3.6208 10.941 2.4243 194.54-30.784 198.21-273.44l-38.723-295.32c25.805-4.3497 110-44.404 135.99-59.617 71.319-41.756 102.52-102.06 130.3-146.68 31.198-67.005 49.553-112.75 49.553-185.69 0-184.5-151.52-334.04-338.44-334.04-26.938 0-53.112 3.1526-78.258 9.0214l-33.403-237.02c126.49-138.75 254.7-309.3 297.76-465.58 42.213-206.45 22.024-345.88-89.932-405.64-102.78-23.542-227.54 114.99-300.99 315.1-47.718 106.84 13.071 310.97 40.378 394.78-201.18 190.3-401.34 326.77-422.11 656.57 0 258.27 212.12 467.61 473.76 467.61 24.998 0 66.294 0.57764 113.27-5.4316l22.098 294.92s8.4786 215.72-157.91 244.94c-66.036 11.591-129.72 25.024-111.4-18.105 51.462-26.445 111.4-68.602 111.4-137.78 0-86.088-65.672-155.88-146.64-155.88-81.005 0-146.68 69.794-146.68 155.88zm297.47-1320l31.162 221.43c-138.05 42.126-238.37 169.14-238.37 319.23 0 169.86 205.82 249.08 200.24 208.76-80.24-34.155-109.97-72.546-109.97-164.25 0-103.66 71.799-190.72 168.96-215.54l74.108 527.19c-16.667 4.4531-34.652 8.22-54.14 11.227-282.01-5.5772-414.56-153.68-414.56-411.94 0.006714-144.68 172.67-311.58 342.58-496.11zm147.78 890.35l-73.892-525.16c11.305-1.7379 22.942-2.6796 34.763-2.6796 124.58 0 225.59 99.708 225.59 222.67-2.4943 98.949-7.2712 246.28-186.46 305.18zm-157.17-1105.7c-50.84-169.25-4.8825-253.6 24.956-318.43 70.512-153.09 132.55-208.76 195.72-258.45 82.149 31.798 45.071 258.45 32.738 258.45-38.686 133.72-177.47 240.02-253.41 318.43z" fill-rule="evenodd" stroke="#000" stroke-width="4"/>
 </g>
</svg>
